<svg width="90" height="90" viewBox="0 0 90 90" fill="none" xmlns="http://www.w3.org/2000/svg">
<path d="M49.6688 12.9607C49.2701 12.7741 48.8178 12.6758 48.3574 12.6758V90C48.8178 90 49.2701 89.9017 49.6688 89.715L88.6875 71.4525C89.0865 71.2657 89.4177 70.997 89.6479 70.6734C89.8782 70.3499 89.9992 69.9828 89.9989 69.6092V33.0736C89.9992 32.7 89.8782 32.333 89.6479 32.0094C89.4177 31.6858 89.0865 31.4171 88.6875 31.2303L49.6688 12.9607Z" fill="#1D1B20"/>
<path d="M49.6688 12.9607C49.2701 12.7741 48.8178 12.6758 48.3574 12.6758V90C48.8178 90 49.2701 89.9017 49.6688 89.715L88.6875 71.4525C89.0865 71.2657 89.4177 70.997 89.6479 70.6734C89.8782 70.3499 89.9992 69.9828 89.9989 69.6092V33.0736C89.9992 32.7 89.8782 32.333 89.6479 32.0094C89.4177 31.6858 89.0865 31.4171 88.6875 31.2303L49.6688 12.9607Z" fill="black" fill-opacity="0.2"/>
<path d="M49.6688 12.9607C49.2701 12.7741 48.8178 12.6758 48.3574 12.6758V90C48.8178 90 49.2701 89.9017 49.6688 89.715L88.6875 71.4525C89.0865 71.2657 89.4177 70.997 89.6479 70.6734C89.8782 70.3499 89.9992 69.9828 89.9989 69.6092V33.0736C89.9992 32.7 89.8782 32.333 89.6479 32.0094C89.4177 31.6858 89.0865 31.4171 88.6875 31.2303L49.6688 12.9607Z" fill="black" fill-opacity="0.2"/>
<path d="M49.6688 12.9607C49.2701 12.7741 48.8178 12.6758 48.3574 12.6758V90C48.8178 90 49.2701 89.9017 49.6688 89.715L88.6875 71.4525C89.0865 71.2657 89.4177 70.997 89.6479 70.6734C89.8782 70.3499 89.9992 69.9828 89.9989 69.6092V33.0736C89.9992 32.7 89.8782 32.333 89.6479 32.0094C89.4177 31.6858 89.0865 31.4171 88.6875 31.2303L49.6688 12.9607Z" fill="black" fill-opacity="0.2"/>
<path d="M40.3292 0.284943C40.7279 0.0982735 41.1802 0 41.6406 0V77.3242C41.1802 77.3242 40.7279 77.2259 40.3292 77.0392L1.31055 58.7767C0.911583 58.5899 0.58033 58.3212 0.350113 57.9977C0.1199 57.6741 -0.00114822 57.307 -0.000854492 56.9335V20.3978C-0.00114822 20.0242 0.1199 19.6572 0.350113 19.3336C0.58033 19.01 0.911583 18.7413 1.31055 18.5545L40.3292 0.284943Z" fill="#1D1B20"/>
<path d="M40.3292 0.284943C40.7279 0.0982735 41.1802 0 41.6406 0V77.3242C41.1802 77.3242 40.7279 77.2259 40.3292 77.0392L1.31055 58.7767C0.911583 58.5899 0.58033 58.3212 0.350113 57.9977C0.1199 57.6741 -0.00114822 57.307 -0.000854492 56.9335V20.3978C-0.00114822 20.0242 0.1199 19.6572 0.350113 19.3336C0.58033 19.01 0.911583 18.7413 1.31055 18.5545L40.3292 0.284943Z" fill="black" fill-opacity="0.2"/>
<path d="M40.3292 0.284943C40.7279 0.0982735 41.1802 0 41.6406 0V77.3242C41.1802 77.3242 40.7279 77.2259 40.3292 77.0392L1.31055 58.7767C0.911583 58.5899 0.58033 58.3212 0.350113 57.9977C0.1199 57.6741 -0.00114822 57.307 -0.000854492 56.9335V20.3978C-0.00114822 20.0242 0.1199 19.6572 0.350113 19.3336C0.58033 19.01 0.911583 18.7413 1.31055 18.5545L40.3292 0.284943Z" fill="black" fill-opacity="0.2"/>
<path d="M40.3292 0.284943C40.7279 0.0982735 41.1802 0 41.6406 0V77.3242C41.1802 77.3242 40.7279 77.2259 40.3292 77.0392L1.31055 58.7767C0.911583 58.5899 0.58033 58.3212 0.350113 57.9977C0.1199 57.6741 -0.00114822 57.307 -0.000854492 56.9335V20.3978C-0.00114822 20.0242 0.1199 19.6572 0.350113 19.3336C0.58033 19.01 0.911583 18.7413 1.31055 18.5545L40.3292 0.284943Z" fill="black" fill-opacity="0.2"/>
</svg>

